<mxfile host="65bd71144e">
    <diagram id="fgafS0JJoFdXkuoPkeNL" name="Page-1">
        <mxGraphModel dx="2728" dy="1640" grid="1" gridSize="10" guides="1" tooltips="1" connect="1" arrows="1" fold="1" page="1" pageScale="1" pageWidth="850" pageHeight="1100" math="0" shadow="0">
            <root>
                <mxCell id="0"/>
                <mxCell id="1" parent="0"/>
                <mxCell id="4" value="" style="edgeStyle=none;html=1;entryX=0.5;entryY=0;entryDx=0;entryDy=0;" parent="1" source="2" target="5" edge="1">
                    <mxGeometry relative="1" as="geometry">
                        <mxPoint x="180" y="240" as="targetPoint"/>
                    </mxGeometry>
                </mxCell>
                <mxCell id="2" value="LiDAR输入" style="rounded=1;whiteSpace=wrap;html=1;" parent="1" vertex="1">
                    <mxGeometry x="90" y="40" width="120" height="60" as="geometry"/>
                </mxCell>
                <mxCell id="10" value="" style="edgeStyle=none;html=1;fontFamily=Helvetica;fontSize=12;fontColor=default;" parent="1" source="3" target="9" edge="1">
                    <mxGeometry relative="1" as="geometry"/>
                </mxCell>
                <mxCell id="3" value="StateEstimation" style="whiteSpace=wrap;html=1;rounded=1;" parent="1" vertex="1">
                    <mxGeometry x="90" y="564" width="120" height="60" as="geometry"/>
                </mxCell>
                <mxCell id="6" value="" style="edgeStyle=none;html=1;" parent="1" source="5" target="3" edge="1">
                    <mxGeometry relative="1" as="geometry"/>
                </mxCell>
                <mxCell id="8" value="" style="edgeStyle=none;html=1;fontFamily=Helvetica;fontSize=12;fontColor=default;" parent="1" source="5" target="7" edge="1">
                    <mxGeometry relative="1" as="geometry"/>
                </mxCell>
                <mxCell id="5" value="第一帧LiDAR" style="rhombus;whiteSpace=wrap;html=1;" parent="1" vertex="1">
                    <mxGeometry x="50" y="180" width="200" height="80" as="geometry"/>
                </mxCell>
                <mxCell id="20" value="" style="edgeStyle=none;html=1;entryX=0;entryY=0.5;entryDx=0;entryDy=0;exitX=1;exitY=0.5;exitDx=0;exitDy=0;" edge="1" parent="1" source="7" target="15">
                    <mxGeometry relative="1" as="geometry"/>
                </mxCell>
                <mxCell id="7" value="BuildVoxelMap" style="rounded=1;whiteSpace=wrap;html=1;" parent="1" vertex="1">
                    <mxGeometry x="290" y="190" width="140" height="60" as="geometry"/>
                </mxCell>
                <mxCell id="12" value="" style="edgeStyle=none;html=1;fontFamily=Helvetica;fontSize=12;fontColor=default;entryX=0.5;entryY=0;entryDx=0;entryDy=0;" parent="1" source="9" edge="1" target="13">
                    <mxGeometry relative="1" as="geometry">
                        <mxPoint x="150" y="739.9999999999999" as="targetPoint"/>
                    </mxGeometry>
                </mxCell>
                <mxCell id="9" value="计算world下lidar的坐标&lt;div&gt;并计算var&lt;/div&gt;" style="whiteSpace=wrap;html=1;rounded=1;" parent="1" vertex="1">
                    <mxGeometry x="70" y="760" width="160" height="60" as="geometry"/>
                </mxCell>
                <mxCell id="78" value="" style="edgeStyle=none;html=1;fontFamily=Helvetica;fontSize=12;fontColor=default;" edge="1" parent="1" source="13" target="77">
                    <mxGeometry relative="1" as="geometry"/>
                </mxCell>
                <mxCell id="13" value="更新VoxelMap&lt;div&gt;&lt;font color=&quot;#ffffff&quot;&gt;&lt;br&gt;&lt;/font&gt;&lt;div&gt;&lt;b&gt;UpdateVoxelMap&lt;/b&gt;&lt;br&gt;&lt;/div&gt;&lt;/div&gt;" style="whiteSpace=wrap;html=1;rounded=1;" parent="1" vertex="1">
                    <mxGeometry x="90" y="960" width="120" height="60" as="geometry"/>
                </mxCell>
                <mxCell id="17" value="" style="edgeStyle=none;html=1;" edge="1" parent="1" source="15" target="16">
                    <mxGeometry relative="1" as="geometry"/>
                </mxCell>
                <mxCell id="15" value="每个lidar转到world，&lt;div&gt;计算每个点的cov&lt;/div&gt;" style="rounded=1;whiteSpace=wrap;html=1;" vertex="1" parent="1">
                    <mxGeometry x="560" y="80" width="120" height="60" as="geometry"/>
                </mxCell>
                <mxCell id="19" value="" style="edgeStyle=none;html=1;" edge="1" parent="1" source="16" target="18">
                    <mxGeometry relative="1" as="geometry"/>
                </mxCell>
                <mxCell id="16" value="判断该点对应的VoxelMap是否需要新建。&lt;div&gt;如果需要新建，则创建对应的octotree；&lt;/div&gt;&lt;div&gt;如果不需要新建，则简单的加入。&lt;/div&gt;" style="whiteSpace=wrap;html=1;rounded=1;" vertex="1" parent="1">
                    <mxGeometry x="500" y="170" width="240" height="60" as="geometry"/>
                </mxCell>
                <mxCell id="18" value="对每个octotree进行初始化&lt;div&gt;init_octo_tree&lt;br&gt;&lt;/div&gt;" style="whiteSpace=wrap;html=1;rounded=1;" vertex="1" parent="1">
                    <mxGeometry x="540" y="260" width="160" height="60" as="geometry"/>
                </mxCell>
                <mxCell id="21" value="" style="edgeStyle=none;html=1;entryX=1;entryY=0.5;entryDx=0;entryDy=0;exitX=0;exitY=0.5;exitDx=0;exitDy=0;" edge="1" parent="1" source="18" target="7">
                    <mxGeometry relative="1" as="geometry">
                        <mxPoint x="409" y="200" as="sourcePoint"/>
                        <mxPoint x="540" y="120" as="targetPoint"/>
                    </mxGeometry>
                </mxCell>
                <mxCell id="27" value="" style="edgeStyle=none;html=1;" edge="1" parent="1" source="22" target="26">
                    <mxGeometry relative="1" as="geometry"/>
                </mxCell>
                <mxCell id="40" value="" style="edgeStyle=none;html=1;" edge="1" parent="1" source="22" target="39">
                    <mxGeometry relative="1" as="geometry"/>
                </mxCell>
                <mxCell id="22" value="初始化平面&lt;div&gt;init_plane()&lt;br&gt;&lt;/div&gt;" style="whiteSpace=wrap;html=1;rounded=1;" vertex="1" parent="1">
                    <mxGeometry x="870" y="180" width="120" height="60" as="geometry"/>
                </mxCell>
                <mxCell id="23" value="" style="edgeStyle=none;html=1;entryX=0;entryY=0.5;entryDx=0;entryDy=0;exitX=1;exitY=0.5;exitDx=0;exitDy=0;" edge="1" parent="1" source="18" target="24">
                    <mxGeometry relative="1" as="geometry">
                        <mxPoint x="450" y="230" as="sourcePoint"/>
                        <mxPoint x="570" y="120" as="targetPoint"/>
                    </mxGeometry>
                </mxCell>
                <mxCell id="25" value="YES" style="edgeStyle=none;html=1;" edge="1" parent="1" source="24" target="22">
                    <mxGeometry relative="1" as="geometry"/>
                </mxCell>
                <mxCell id="24" value="点数足够多，大于阈值？&lt;div&gt;&amp;gt;points_size_threshold_&lt;/div&gt;" style="rhombus;whiteSpace=wrap;html=1;" vertex="1" parent="1">
                    <mxGeometry x="830" y="60" width="200" height="80" as="geometry"/>
                </mxCell>
                <mxCell id="29" value="" style="edgeStyle=none;html=1;" edge="1" parent="1" source="26" target="28">
                    <mxGeometry relative="1" as="geometry"/>
                </mxCell>
                <mxCell id="37" value="YES" style="edgeLabel;html=1;align=center;verticalAlign=middle;resizable=0;points=[];" vertex="1" connectable="0" parent="29">
                    <mxGeometry x="0.1333" y="2" relative="1" as="geometry">
                        <mxPoint as="offset"/>
                    </mxGeometry>
                </mxCell>
                <mxCell id="31" value="" style="edgeStyle=none;html=1;" edge="1" parent="1" source="26" target="30">
                    <mxGeometry relative="1" as="geometry"/>
                </mxCell>
                <mxCell id="33" value="&lt;div&gt;NO&lt;/div&gt;&lt;div&gt;&lt;br&gt;&lt;/div&gt;" style="edgeLabel;html=1;align=center;verticalAlign=middle;resizable=0;points=[];" vertex="1" connectable="0" parent="31">
                    <mxGeometry x="-0.15" y="-2" relative="1" as="geometry">
                        <mxPoint as="offset"/>
                    </mxGeometry>
                </mxCell>
                <mxCell id="26" value="符合平面？" style="rhombus;whiteSpace=wrap;html=1;" vertex="1" parent="1">
                    <mxGeometry x="830" y="270" width="200" height="80" as="geometry"/>
                </mxCell>
                <mxCell id="28" value="标记为叶节点；&lt;div&gt;清空待处理的temp数据&lt;/div&gt;" style="rounded=1;whiteSpace=wrap;html=1;" vertex="1" parent="1">
                    <mxGeometry x="835" y="380" width="190" height="60" as="geometry"/>
                </mxCell>
                <mxCell id="42" value="" style="edgeStyle=none;html=1;" edge="1" parent="1" source="30" target="41">
                    <mxGeometry relative="1" as="geometry"/>
                </mxCell>
                <mxCell id="30" value="继续拆分。&lt;div&gt;cut_octo_tree()&lt;/div&gt;" style="rounded=1;whiteSpace=wrap;html=1;" vertex="1" parent="1">
                    <mxGeometry x="1090" y="280" width="120" height="60" as="geometry"/>
                </mxCell>
                <mxCell id="38" value="" style="edgeStyle=none;html=1;entryX=1;entryY=0.5;entryDx=0;entryDy=0;exitX=0;exitY=0.5;exitDx=0;exitDy=0;" edge="1" parent="1" source="28" target="18">
                    <mxGeometry relative="1" as="geometry">
                        <mxPoint x="710" y="300" as="sourcePoint"/>
                        <mxPoint x="800" y="180" as="targetPoint"/>
                    </mxGeometry>
                </mxCell>
                <mxCell id="39" value="init_plane()&lt;div&gt;1. 特征值分解，判定；&lt;/div&gt;&lt;div&gt;2. 符合平面，则对平面进行编号；&lt;/div&gt;&lt;div&gt;3. 返回是否是平面&lt;/div&gt;" style="whiteSpace=wrap;html=1;rounded=1;fontStyle=0" vertex="1" parent="1">
                    <mxGeometry x="1210" y="180" width="230" height="60" as="geometry"/>
                </mxCell>
                <mxCell id="44" value="" style="edgeStyle=none;html=1;" edge="1" parent="1" source="41" target="43">
                    <mxGeometry relative="1" as="geometry"/>
                </mxCell>
                <mxCell id="56" value="" style="edgeStyle=none;html=1;fontFamily=Helvetica;fontSize=12;fontColor=default;" edge="1" parent="1" source="41" target="43">
                    <mxGeometry relative="1" as="geometry"/>
                </mxCell>
                <mxCell id="41" value="拆分为8个子节点" style="whiteSpace=wrap;html=1;rounded=1;" vertex="1" parent="1">
                    <mxGeometry x="1270" y="280" width="120" height="60" as="geometry"/>
                </mxCell>
                <mxCell id="43" value="对每个子节点进一步初初始化平面" style="whiteSpace=wrap;html=1;rounded=1;" vertex="1" parent="1">
                    <mxGeometry x="1270" y="370" width="120" height="60" as="geometry"/>
                </mxCell>
                <mxCell id="47" value="" style="endArrow=classic;html=1;exitX=1;exitY=0.5;exitDx=0;exitDy=0;entryX=0;entryY=0.5;entryDx=0;entryDy=0;" edge="1" parent="1" source="3" target="48">
                    <mxGeometry width="50" height="50" relative="1" as="geometry">
                        <mxPoint x="210" y="564" as="sourcePoint"/>
                        <mxPoint x="260" y="514" as="targetPoint"/>
                    </mxGeometry>
                </mxCell>
                <mxCell id="52" value="" style="edgeStyle=none;html=1;fontFamily=Helvetica;fontSize=12;fontColor=default;" edge="1" parent="1" source="48" target="51">
                    <mxGeometry relative="1" as="geometry"/>
                </mxCell>
                <mxCell id="106" value="" style="edgeStyle=none;html=1;fontFamily=Helvetica;fontSize=12;fontColor=default;" edge="1" parent="1" source="48" target="105">
                    <mxGeometry relative="1" as="geometry"/>
                </mxCell>
                <mxCell id="48" value="对每个点转坐标系" style="whiteSpace=wrap;html=1;rounded=1;" vertex="1" parent="1">
                    <mxGeometry x="290" y="454" width="160" height="30" as="geometry"/>
                </mxCell>
                <mxCell id="54" value="" style="edgeStyle=none;html=1;fontFamily=Helvetica;fontSize=12;fontColor=default;" edge="1" parent="1" source="51" target="53">
                    <mxGeometry relative="1" as="geometry"/>
                </mxCell>
                <mxCell id="61" value="" style="edgeStyle=none;html=1;fontFamily=Helvetica;fontSize=12;fontColor=default;" edge="1" parent="1" source="51" target="60">
                    <mxGeometry relative="1" as="geometry"/>
                </mxCell>
                <mxCell id="75" value="" style="edgeStyle=none;html=1;fontFamily=Helvetica;fontSize=12;fontColor=default;" edge="1" parent="1" source="51" target="60">
                    <mxGeometry relative="1" as="geometry"/>
                </mxCell>
                <mxCell id="51" value="对每个点计算残差&lt;div&gt;BuildResidualListOMP&lt;br&gt;&lt;/div&gt;" style="whiteSpace=wrap;html=1;rounded=1;" vertex="1" parent="1">
                    <mxGeometry x="290" y="534" width="160" height="50" as="geometry"/>
                </mxCell>
                <mxCell id="53" value="EKF部分，构建观测、更新等" style="whiteSpace=wrap;html=1;rounded=1;" vertex="1" parent="1">
                    <mxGeometry x="290" y="690" width="160" height="30" as="geometry"/>
                </mxCell>
                <mxCell id="55" value="" style="endArrow=classic;html=1;exitX=1;exitY=0.667;exitDx=0;exitDy=0;entryX=0;entryY=0.5;entryDx=0;entryDy=0;exitPerimeter=0;" edge="1" parent="1" source="3" target="53">
                    <mxGeometry width="50" height="50" relative="1" as="geometry">
                        <mxPoint x="220" y="604" as="sourcePoint"/>
                        <mxPoint x="300" y="479" as="targetPoint"/>
                    </mxGeometry>
                </mxCell>
                <mxCell id="57" value="" style="edgeStyle=none;html=1;entryX=1;entryY=0.5;entryDx=0;entryDy=0;exitX=1;exitY=0.5;exitDx=0;exitDy=0;" edge="1" parent="1" source="43" target="39">
                    <mxGeometry relative="1" as="geometry">
                        <mxPoint x="1220" y="320" as="sourcePoint"/>
                        <mxPoint x="1280" y="320" as="targetPoint"/>
                        <Array as="points">
                            <mxPoint x="1480" y="360"/>
                            <mxPoint x="1480" y="230"/>
                        </Array>
                    </mxGeometry>
                </mxCell>
                <mxCell id="64" value="" style="edgeStyle=none;html=1;fontFamily=Helvetica;fontSize=12;fontColor=default;" edge="1" parent="1" source="60" target="63">
                    <mxGeometry relative="1" as="geometry"/>
                </mxCell>
                <mxCell id="60" value="判断每个点是否落入有效的voxel当中？" style="whiteSpace=wrap;html=1;rounded=1;" vertex="1" parent="1">
                    <mxGeometry x="500" y="544" width="240" height="30" as="geometry"/>
                </mxCell>
                <mxCell id="66" value="" style="edgeStyle=none;html=1;fontFamily=Helvetica;fontSize=12;fontColor=default;entryX=0;entryY=0.5;entryDx=0;entryDy=0;" edge="1" parent="1" source="63" target="67">
                    <mxGeometry relative="1" as="geometry">
                        <mxPoint x="800" y="557.5" as="targetPoint"/>
                    </mxGeometry>
                </mxCell>
                <mxCell id="74" value="" style="edgeStyle=none;html=1;fontFamily=Helvetica;fontSize=12;fontColor=default;" edge="1" parent="1" source="63" target="73">
                    <mxGeometry relative="1" as="geometry"/>
                </mxCell>
                <mxCell id="63" value="计算残差&lt;div&gt;build_single_residual()&lt;/div&gt;" style="whiteSpace=wrap;html=1;rounded=1;" vertex="1" parent="1">
                    <mxGeometry x="500" y="619" width="240" height="45" as="geometry"/>
                </mxCell>
                <mxCell id="69" value="NO" style="edgeStyle=none;html=1;fontFamily=Helvetica;fontSize=12;fontColor=default;" edge="1" parent="1" source="67" target="68">
                    <mxGeometry relative="1" as="geometry"/>
                </mxCell>
                <mxCell id="72" value="YES" style="edgeStyle=none;html=1;fontFamily=Helvetica;fontSize=12;fontColor=default;" edge="1" parent="1" source="67" target="71">
                    <mxGeometry relative="1" as="geometry"/>
                </mxCell>
                <mxCell id="67" value="这个voxel是否是平面？" style="rhombus;whiteSpace=wrap;html=1;rounded=1;strokeColor=default;align=center;verticalAlign=middle;fontFamily=Helvetica;fontSize=12;fontColor=default;fillColor=default;" vertex="1" parent="1">
                    <mxGeometry x="805" y="602" width="200" height="80" as="geometry"/>
                </mxCell>
                <mxCell id="68" value="用子节点计算 `single_ptpl`" style="whiteSpace=wrap;html=1;rounded=1;" vertex="1" parent="1">
                    <mxGeometry x="1060" y="611.5" width="205" height="60" as="geometry"/>
                </mxCell>
                <mxCell id="71" value="计算残差，并更新prob" style="whiteSpace=wrap;html=1;rounded=1;" vertex="1" parent="1">
                    <mxGeometry x="830" y="714" width="150" height="40" as="geometry"/>
                </mxCell>
                <mxCell id="73" value="记录所有有效的p2pl的距离" style="whiteSpace=wrap;html=1;rounded=1;" vertex="1" parent="1">
                    <mxGeometry x="500" y="709" width="240" height="45" as="geometry"/>
                </mxCell>
                <mxCell id="76" value="" style="edgeStyle=none;html=1;fontFamily=Helvetica;fontSize=12;fontColor=default;exitX=0;exitY=0.5;exitDx=0;exitDy=0;entryX=1;entryY=0.5;entryDx=0;entryDy=0;" edge="1" parent="1" source="73" target="51">
                    <mxGeometry relative="1" as="geometry">
                        <mxPoint x="460" y="569" as="sourcePoint"/>
                        <mxPoint x="460" y="564" as="targetPoint"/>
                    </mxGeometry>
                </mxCell>
                <mxCell id="84" value="" style="edgeStyle=none;html=1;fontFamily=Helvetica;fontSize=12;fontColor=default;" edge="1" parent="1" source="77" target="81">
                    <mxGeometry relative="1" as="geometry"/>
                </mxCell>
                <mxCell id="77" value="对每一个lidar点进行while" style="whiteSpace=wrap;html=1;rounded=1;" vertex="1" parent="1">
                    <mxGeometry x="290" y="860" width="160" height="50" as="geometry"/>
                </mxCell>
                <mxCell id="86" value="YES" style="edgeStyle=none;html=1;fontFamily=Helvetica;fontSize=12;fontColor=default;" edge="1" parent="1" source="81" target="85">
                    <mxGeometry relative="1" as="geometry"/>
                </mxCell>
                <mxCell id="90" value="NO" style="edgeStyle=none;html=1;fontFamily=Helvetica;fontSize=12;fontColor=default;" edge="1" parent="1" source="81" target="89">
                    <mxGeometry relative="1" as="geometry"/>
                </mxCell>
                <mxCell id="81" value="如果点位于的voxel存在OctoTree" style="rhombus;whiteSpace=wrap;html=1;rounded=1;strokeColor=default;align=center;verticalAlign=middle;fontFamily=Helvetica;fontSize=12;fontColor=default;fillColor=default;" vertex="1" parent="1">
                    <mxGeometry x="255" y="940" width="230" height="80" as="geometry"/>
                </mxCell>
                <mxCell id="94" value="" style="edgeStyle=none;html=1;fontFamily=Helvetica;fontSize=12;fontColor=default;" edge="1" parent="1" source="85" target="93">
                    <mxGeometry relative="1" as="geometry"/>
                </mxCell>
                <mxCell id="85" value="UpdateOctoTree()" style="whiteSpace=wrap;html=1;rounded=1;" vertex="1" parent="1">
                    <mxGeometry x="550" y="950" width="120" height="60" as="geometry"/>
                </mxCell>
                <mxCell id="89" value="在这个voxel创建一个新的octotree&lt;div&gt;new VoxelOctoTree()&lt;/div&gt;&lt;div&gt;并插入新的点，用于更新&lt;/div&gt;" style="whiteSpace=wrap;html=1;rounded=1;" vertex="1" parent="1">
                    <mxGeometry x="275" y="1090" width="190" height="60" as="geometry"/>
                </mxCell>
                <mxCell id="91" value="" style="edgeStyle=none;html=1;fontFamily=Helvetica;fontSize=12;fontColor=default;entryX=0;entryY=0.5;entryDx=0;entryDy=0;exitX=1;exitY=0.5;exitDx=0;exitDy=0;" edge="1" parent="1" source="89" target="85">
                    <mxGeometry relative="1" as="geometry">
                        <mxPoint x="380" y="920" as="sourcePoint"/>
                        <mxPoint x="380" y="950" as="targetPoint"/>
                        <Array as="points">
                            <mxPoint x="510" y="1120"/>
                        </Array>
                    </mxGeometry>
                </mxCell>
                <mxCell id="96" value="NO" style="edgeStyle=none;html=1;fontFamily=Helvetica;fontSize=12;fontColor=default;" edge="1" parent="1" source="93" target="95">
                    <mxGeometry relative="1" as="geometry"/>
                </mxCell>
                <mxCell id="100" value="YES" style="edgeStyle=none;html=1;fontFamily=Helvetica;fontSize=12;fontColor=default;" edge="1" parent="1" source="93" target="99">
                    <mxGeometry relative="1" as="geometry"/>
                </mxCell>
                <mxCell id="93" value="是否已经初始化？" style="rhombus;whiteSpace=wrap;html=1;rounded=1;strokeColor=default;align=center;verticalAlign=middle;fontFamily=Helvetica;fontSize=12;fontColor=default;fillColor=default;" vertex="1" parent="1">
                    <mxGeometry x="690" y="940" width="200" height="80" as="geometry"/>
                </mxCell>
                <mxCell id="95" value="数据暂存&lt;div&gt;达到一定量再执行 init_octo_tree()&lt;/div&gt;" style="whiteSpace=wrap;html=1;rounded=1;" vertex="1" parent="1">
                    <mxGeometry x="950" y="950" width="120" height="60" as="geometry"/>
                </mxCell>
                <mxCell id="98" value="" style="endArrow=none;dashed=1;html=1;fontFamily=Helvetica;fontSize=12;fontColor=default;exitX=0.5;exitY=0;exitDx=0;exitDy=0;entryX=0.75;entryY=1;entryDx=0;entryDy=0;" edge="1" parent="1" source="95" target="18">
                    <mxGeometry width="50" height="50" relative="1" as="geometry">
                        <mxPoint x="1110" y="790" as="sourcePoint"/>
                        <mxPoint x="1160" y="740" as="targetPoint"/>
                        <Array as="points">
                            <mxPoint x="780" y="820"/>
                            <mxPoint x="780" y="470"/>
                        </Array>
                    </mxGeometry>
                </mxCell>
                <mxCell id="102" value="" style="edgeStyle=none;html=1;fontFamily=Helvetica;fontSize=12;fontColor=default;" edge="1" parent="1" source="99" target="101">
                    <mxGeometry relative="1" as="geometry"/>
                </mxCell>
                <mxCell id="99" value="1. 如果是平面，且需要更新，则暂存；到一定点数后，重新更新平面参数。&lt;div&gt;重新调用了：init_plane()。疑惑：为什么重新初始化，不是参数更新？&lt;/div&gt;" style="whiteSpace=wrap;html=1;rounded=1;" vertex="1" parent="1">
                    <mxGeometry x="585.5" y="1070" width="409" height="60" as="geometry"/>
                </mxCell>
                <mxCell id="104" value="" style="edgeStyle=none;html=1;fontFamily=Helvetica;fontSize=12;fontColor=default;" edge="1" parent="1" source="101" target="103">
                    <mxGeometry relative="1" as="geometry"/>
                </mxCell>
                <mxCell id="101" value="2.1 不是平面，且没有到这个tree的最大深度，则更新子节点。&lt;div&gt;如果没有对应的子节点，则创建并更新；&lt;/div&gt;" style="whiteSpace=wrap;html=1;rounded=1;" vertex="1" parent="1">
                    <mxGeometry x="590" y="1160" width="400" height="50" as="geometry"/>
                </mxCell>
                <mxCell id="103" value="2.2 如果不是平面，但达到了最大深度。此时：&lt;div&gt;1）若还能够update，则暂存数据，等待重新初始化平面 init_plane()&lt;/div&gt;&lt;div&gt;2）若已经达到了最大点数，则设置为“不能够进一步更新”。之后这个node不再处理任何更新。&lt;/div&gt;" style="whiteSpace=wrap;html=1;rounded=1;" vertex="1" parent="1">
                    <mxGeometry x="595" y="1240" width="390" height="90" as="geometry"/>
                </mxCell>
                <mxCell id="105" value="对每个点转坐标系" style="whiteSpace=wrap;html=1;rounded=1;" vertex="1" parent="1">
                    <mxGeometry x="290" y="620" width="160" height="30" as="geometry"/>
                </mxCell>
                <mxCell id="110" value="&lt;font style=&quot;font-size: 10px;&quot;&gt;只有Build和Update某个VoxelMap的voxel时，才有可能进行octo-tree的初始化。&lt;br&gt;一旦创建以后，只是对octo-tree的节点/叶子等数据进行更新，而不需要重新创建整个octotree&lt;/font&gt;" style="rounded=0;whiteSpace=wrap;html=1;strokeColor=default;align=left;verticalAlign=middle;fontFamily=Helvetica;fontSize=12;fontColor=default;fillColor=default;" vertex="1" parent="1">
                    <mxGeometry x="340" y="340" width="290" height="60" as="geometry"/>
                </mxCell>
                <mxCell id="112" value="" style="endArrow=none;dashed=1;html=1;fontFamily=Helvetica;fontSize=12;fontColor=default;entryX=0.5;entryY=1;entryDx=0;entryDy=0;" edge="1" parent="1" source="110" target="18">
                    <mxGeometry width="50" height="50" relative="1" as="geometry">
                        <mxPoint x="560" y="420" as="sourcePoint"/>
                        <mxPoint x="610" y="370" as="targetPoint"/>
                    </mxGeometry>
                </mxCell>
                <mxCell id="113" value="" style="endArrow=none;dashed=1;html=1;fontFamily=Helvetica;fontSize=12;fontColor=default;exitX=1;exitY=0.5;exitDx=0;exitDy=0;entryX=1;entryY=0.5;entryDx=0;entryDy=0;" edge="1" parent="1" source="99" target="39">
                    <mxGeometry width="50" height="50" relative="1" as="geometry">
                        <mxPoint x="1020" y="960" as="sourcePoint"/>
                        <mxPoint x="670" y="330" as="targetPoint"/>
                        <Array as="points">
                            <mxPoint x="1220" y="1100"/>
                            <mxPoint x="1550" y="270"/>
                        </Array>
                    </mxGeometry>
                </mxCell>
                <mxCell id="114" value="" style="endArrow=none;dashed=1;html=1;fontFamily=Helvetica;fontSize=12;fontColor=default;exitX=1;exitY=0.5;exitDx=0;exitDy=0;entryX=1;entryY=0.5;entryDx=0;entryDy=0;" edge="1" parent="1" source="103" target="39">
                    <mxGeometry width="50" height="50" relative="1" as="geometry">
                        <mxPoint x="1005" y="1110" as="sourcePoint"/>
                        <mxPoint x="1450" y="220" as="targetPoint"/>
                        <Array as="points">
                            <mxPoint x="1160" y="1280"/>
                            <mxPoint x="1560" y="280"/>
                        </Array>
                    </mxGeometry>
                </mxCell>
            </root>
        </mxGraphModel>
    </diagram>
</mxfile>